<svg width="139" height="34" viewBox="0 0 139 34" fill="none" xmlns="http://www.w3.org/2000/svg">
<rect width="139" height="34" rx="17" fill="#EEFF00"/>
<rect x="103" width="36" height="34" rx="17" fill="black"/>
<path d="M122.719 25C118.281 25 114.719 21.4375 114.719 17C114.719 12.5938 118.281 9 122.719 9C123.219 9.03125 123.688 9.0625 124.156 9.15625C125.531 9.40625 125.844 11.25 124.625 11.9375C123.344 12.6562 122.531 14.0312 122.531 15.5625C122.531 18.1562 124.906 20.125 127.469 19.625C128.844 19.375 129.812 20.9688 128.906 22.0625C127.438 23.9062 125.156 25 122.719 25ZM122.719 10.5C119.125 10.5 116.219 13.4375 116.219 17C116.219 20.5938 119.125 23.5 122.719 23.5C124.75 23.5 126.562 22.5625 127.75 21.0938C124.281 21.7812 121.031 19.0938 121.031 15.5625C121.031 13.4375 122.188 11.5938 123.906 10.625C123.5 10.5625 123.125 10.5 122.719 10.5Z" fill="#EEFF00"/>
<path d="M33.1211 15.826C33.6582 16.217 34 16.8035 34 17.4878C34 18.1232 33.6582 18.7586 33.1211 19.1496L30.1914 21.1046L30.875 24.5748C30.9727 25.2102 30.7773 25.8944 30.3379 26.3343C29.8496 26.8231 29.2148 27.0186 28.5312 26.8719L25.0645 26.2366L23.1113 29.1691C22.7695 29.7067 22.1348 30 21.5 30C20.8164 30 20.2305 29.7067 19.8398 29.1691L17.8867 26.2366L14.4199 26.8719C13.7363 27.0186 13.1016 26.8231 12.6621 26.3343C12.1738 25.8944 11.9785 25.2102 12.0762 24.5748L12.7598 21.1046L9.83008 19.1007C9.29297 18.7586 9 18.1232 9 17.4878C9 16.8035 9.29297 16.217 9.83008 15.826L12.7598 13.871L12.0762 10.4008C11.9785 9.7654 12.1738 9.08113 12.6621 8.64125C13.1016 8.15249 13.7852 7.95699 14.4199 8.05474L17.8867 8.739L19.8398 5.80645C20.5723 4.73118 22.3789 4.73118 23.1113 5.80645L25.0645 8.739L28.5312 8.05474C29.166 7.95699 29.8496 8.15249 30.3379 8.59238C30.7773 9.08113 30.9727 9.7654 30.875 10.4008L30.1914 13.871L33.1211 15.826ZM27.6035 20.0293L31.3633 17.4878L27.6035 14.9462L28.4336 10.4985L23.9902 11.3294L21.5 7.56598L18.9609 11.3294L14.5176 10.4985L15.3477 14.9462L11.6367 17.4878L15.3477 20.0293L14.5176 24.477L18.9609 23.5973L21.5 27.3607L23.9902 23.6461L28.4336 24.477L27.6035 20.0293ZM21.5 12.4047C24.2832 12.4047 26.5781 14.7019 26.5781 17.4878C26.5781 20.3226 24.2832 22.5709 21.5 22.5709C18.668 22.5709 16.4219 20.3226 16.4219 17.4878C16.4219 14.7019 18.668 12.4047 21.5 12.4047ZM21.5 20.2248C22.9648 20.2248 24.2344 19.0029 24.2344 17.4878C24.2344 16.0215 22.9648 14.7507 21.5 14.7507C19.9863 14.7507 18.7656 16.0215 18.7656 17.4878C18.7656 19.0029 19.9863 20.2248 21.5 20.2248Z" fill="black"/>
</svg>
